<svg xmlns="http://www.w3.org/2000/svg" width="165" height="36" viewBox="0 0 165 36">
  <defs>
    <style>
      .cls-1 {
        fill: #14163f;
      }

      .cls-1, .cls-2 {
        fill-rule: evenodd;
      }

      .cls-2 {
        fill: #5c6ac4;
      }
    </style>
  </defs>
  <path class="cls-1" d="M50.212,7.391h0a8.366,8.366,0,0,0-2.955-2.137A10,10,0,0,0,43.2,4.476H36.392V24.068H43.2a10.082,10.082,0,0,0,3.829-.706,8.469,8.469,0,0,0,2.979-2.02A8.853,8.853,0,0,0,51.9,18.22a11.775,11.775,0,0,0,.64-3.973,12.023,12.023,0,0,0-.569-3.722A8.917,8.917,0,0,0,50.212,7.391Zm-0.8,6.856a8.919,8.919,0,0,1-.415,2.77,6.266,6.266,0,0,1-1.182,2.144,5.254,5.254,0,0,1-1.9,1.39,6.7,6.7,0,0,1-2.706.508H39.52V7.484H43.2a6.692,6.692,0,0,1,2.672.5,5.417,5.417,0,0,1,1.908,1.364,6.06,6.06,0,0,1,1.2,2.113A8.763,8.763,0,0,1,49.407,14.247Zm16.66-2.957h0a7.378,7.378,0,0,0-2.309-1.671A6.84,6.84,0,0,0,60.862,9a6.753,6.753,0,0,0-2.887.625,7.424,7.424,0,0,0-2.293,1.669,7.771,7.771,0,0,0-1.53,2.438A7.929,7.929,0,0,0,53.6,16.67a8.017,8.017,0,0,0,.536,2.908,7.69,7.69,0,0,0,1.5,2.441,7.216,7.216,0,0,0,2.3,1.676,7.129,7.129,0,0,0,5.825,0,7.18,7.18,0,0,0,2.317-1.677A8.011,8.011,0,0,0,67.6,13.728,7.772,7.772,0,0,0,66.067,11.29Zm-1.046,5.355a4.848,4.848,0,0,1-.343,1.835A5.283,5.283,0,0,1,63.746,20a4.074,4.074,0,0,1-1.311.988,3.73,3.73,0,0,1-3.146,0,4.24,4.24,0,0,1-1.321-.974,4.744,4.744,0,0,1-.905-1.474,4.93,4.93,0,0,1-.334-1.819,5.129,5.129,0,0,1,.337-1.851,4.864,4.864,0,0,1,.92-1.522,4.378,4.378,0,0,1,1.338-1.011,3.482,3.482,0,0,1,1.538-.356,3.539,3.539,0,0,1,1.563.356,4.33,4.33,0,0,1,1.325,1,5.118,5.118,0,0,1,.927,1.5A4.78,4.78,0,0,1,65.021,16.645Zm10.53,4.072c-0.012.007-.116,0.066-0.6,0.293a2.235,2.235,0,0,1-.941.175A0.976,0.976,0,0,1,73.4,21a0.336,0.336,0,0,1-.115-0.333V12.1h3.042V9.221H73.29V4.775h-3.1V9.221h-1.82V12.1h1.82v8.861A3.136,3.136,0,0,0,70.5,22.38a3.217,3.217,0,0,0,.787,1.015,3.27,3.27,0,0,0,1.128.628,4.106,4.106,0,0,0,1.271.2,5.441,5.441,0,0,0,1.173-.122,8.339,8.339,0,0,0,.912-0.254,4.331,4.331,0,0,0,.76-0.336c0.194-.112.267-0.151,0.29-0.162l0.745-.375-1.058-2.824Zm12.768-1.13h0a1.483,1.483,0,0,1-.351.554,3.325,3.325,0,0,1-.762.595,4.841,4.841,0,0,1-1.025.439,3.679,3.679,0,0,1-1.066.16,3.537,3.537,0,0,1-1.564-.356,4.315,4.315,0,0,1-1.325-1,5.089,5.089,0,0,1-1.269-3.386,5.169,5.169,0,0,1,.325-1.853,4.565,4.565,0,0,1,.889-1.465,4.083,4.083,0,0,1,1.311-.957,3.817,3.817,0,0,1,1.607-.34,3.754,3.754,0,0,1,1.884.489,3.279,3.279,0,0,1,1.287,1.317l0.367,0.687,2.978-.974-0.472-.962a6.147,6.147,0,0,0-2.389-2.611A6.865,6.865,0,0,0,85.164,9a7.163,7.163,0,0,0-2.947.605,7.227,7.227,0,0,0-3.853,4.059,8.088,8.088,0,0,0-.536,2.934,7.83,7.83,0,0,0,.567,2.974,8.113,8.113,0,0,0,1.535,2.439A7.235,7.235,0,0,0,82.26,23.7a6.982,6.982,0,0,0,2.93.621,7.271,7.271,0,0,0,1.986-.273,7.141,7.141,0,0,0,1.762-.762,6.068,6.068,0,0,0,1.427-1.195A5.008,5.008,0,0,0,91.3,20.54l0.349-.942-3.054-.874Zm16.308-8.3h0a7.378,7.378,0,0,0-2.309-1.671A6.841,6.841,0,0,0,99.423,9a6.753,6.753,0,0,0-2.887.625,7.422,7.422,0,0,0-2.293,1.669,7.768,7.768,0,0,0-1.53,2.438,7.924,7.924,0,0,0-.552,2.941,8.017,8.017,0,0,0,.537,2.908,7.686,7.686,0,0,0,1.5,2.441A7.214,7.214,0,0,0,96.5,23.7a7.129,7.129,0,0,0,5.825,0,7.18,7.18,0,0,0,2.317-1.678,8.011,8.011,0,0,0,1.513-8.291A7.751,7.751,0,0,0,104.627,11.29Zm-1.046,5.355a4.837,4.837,0,0,1-.343,1.835A5.268,5.268,0,0,1,102.306,20a4.079,4.079,0,0,1-1.31.988,3.732,3.732,0,0,1-3.147,0,4.238,4.238,0,0,1-1.321-.974,4.744,4.744,0,0,1-.906-1.474,4.936,4.936,0,0,1-.334-1.819,5.134,5.134,0,0,1,.337-1.851,4.866,4.866,0,0,1,.92-1.522,4.377,4.377,0,0,1,1.338-1.011,3.482,3.482,0,0,1,1.539-.356,3.538,3.538,0,0,1,1.563.356,4.337,4.337,0,0,1,1.325,1,5.118,5.118,0,0,1,.927,1.5A4.769,4.769,0,0,1,103.581,16.645Zm24.547-5.688h0A4.164,4.164,0,0,0,124.279,9a6.027,6.027,0,0,0-4.8,2.346,4.731,4.731,0,0,0-.855-1.112A4.575,4.575,0,0,0,115.327,9a5.951,5.951,0,0,0-3.385,1.033,6.585,6.585,0,0,0-.673.519V9.221h-3V24.068h3.1V15.227a5.52,5.52,0,0,1,.562-1.282,4.8,4.8,0,0,1,.874-1.066,3.505,3.505,0,0,1,1.045-.653A3.183,3.183,0,0,1,115.028,12a1.659,1.659,0,0,1,1.539.736,5.94,5.94,0,0,1,.6,3.155v8.173h3.1V15.252a5.741,5.741,0,0,1,.556-1.292,4.655,4.655,0,0,1,.85-1.062,3.539,3.539,0,0,1,1.038-.664A3.091,3.091,0,0,1,123.905,12a1.679,1.679,0,0,1,1.552.75,6.141,6.141,0,0,1,.611,3.141v8.173h3.1v-8.4A9.15,9.15,0,0,0,128.128,10.957Z"/>
  <path id="Shape_2_copy" data-name="Shape 2 copy" class="cls-2" d="M131.791,23.99V5.243h7.935a5.313,5.313,0,0,1,2.386.541A6.175,6.175,0,0,1,144,7.21a6.724,6.724,0,0,1,1.239,2.007,6.042,6.042,0,0,1,.448,2.258,6.518,6.518,0,0,1-.421,2.31,6.423,6.423,0,0,1-1.187,1.993,5.812,5.812,0,0,1-1.845,1.4,5.327,5.327,0,0,1-2.372.528h-4.429v3.216a3.065,3.065,0,0,1-3.063,3.068h-0.575Zm3.638-9.479h4.218a2.081,2.081,0,0,0,1.674-.819,3.39,3.39,0,0,0,.672-2.218,3.65,3.65,0,0,0-.211-1.281,3.13,3.13,0,0,0-.553-0.964,2.211,2.211,0,0,0-.8-0.594,2.356,2.356,0,0,0-.936-0.2h-4.06v6.073Zm21.648-3.367a6.717,6.717,0,0,0-4.624-1.465,10.183,10.183,0,0,0-5.748,1.769l1.082,2.244a10.049,10.049,0,0,1,2.16-1.162,6.1,6.1,0,0,1,2.162-.4,3.24,3.24,0,0,1,2.307.739,2.783,2.783,0,0,1,.777,2.113v0.791a7.41,7.41,0,0,0-1.567-.449,10.358,10.358,0,0,0-1.807-.158,8.035,8.035,0,0,0-2.372.331,6,6,0,0,0-1.859.911,4.148,4.148,0,0,0-1.212,1.411,3.848,3.848,0,0,0-.435,1.81,4.228,4.228,0,0,0,.355,1.743,4.3,4.3,0,0,0,.989,1.385,4.486,4.486,0,0,0,1.5.925,5.245,5.245,0,0,0,1.872.329,6.457,6.457,0,0,0,2.822-.633,6.137,6.137,0,0,0,2.24-1.849L155.8,22.3a1.9,1.9,0,0,0,.659,1.175,2.443,2.443,0,0,0,1.529.462c0.207,0,.454-0.013.738-0.037V15.381A5.37,5.37,0,0,0,157.077,11.144Zm-1.884,8.118a1.271,1.271,0,0,1-.58,1,3.077,3.077,0,0,1-1.251.845,4.625,4.625,0,0,1-1.7.316,2.476,2.476,0,0,1-1.686-.594,1.893,1.893,0,0,1-.686-1.491,1.865,1.865,0,0,1,.87-1.572,3.771,3.771,0,0,1,2.24-.62,7.377,7.377,0,0,1,1.424.145,8.589,8.589,0,0,1,1.37.382v1.585Zm9.595,4.7h-0.964a2.517,2.517,0,0,1-2.515-2.519V4.476h3.479V23.962ZM15.1,0H1V28l14.1,0.124A14.05,14.05,0,0,0,29.14,14.062h0A14.05,14.05,0,0,0,15.1,0ZM7.25,10.956a2.565,2.565,0,1,1,2.565,2.569A2.567,2.567,0,0,1,7.25,10.956Zm7.376,9.874-0.168,0A6.914,6.914,0,0,1,8.75,18.067l1.321-.89a5.34,5.34,0,0,0,4.417,2.056,5.908,5.908,0,0,0,4.9-2.08l1.287,0.938A7.457,7.457,0,0,1,14.627,20.829Zm6.434-9.156H16.094V10.238h4.967v1.435Z"/>
  <path class="cls-1" d="M1,28V0H0V36l8-8H1Z"/>
</svg>
