<svg xmlns="http://www.w3.org/2000/svg" width="138" height="30" viewBox="0 0 138 30">
  <defs>
    <style>
      .cls-1 {
        fill: #14163f;
      }

      .cls-1, .cls-2 {
        fill-rule: evenodd;
      }

      .cls-2 {
        fill: #5c6ac4;
      }
    </style>
  </defs>
  <path class="cls-1" d="M41.962,6.176h0a6.992,6.992,0,0,0-2.469-1.786,8.353,8.353,0,0,0-3.386-.65H30.413V20.114h5.694a8.426,8.426,0,0,0,3.2-.59,7.08,7.08,0,0,0,2.49-1.688,7.4,7.4,0,0,0,1.573-2.609,9.839,9.839,0,0,0,.535-3.32A10.049,10.049,0,0,0,43.429,8.8,7.452,7.452,0,0,0,41.962,6.176Zm-0.672,5.73a7.452,7.452,0,0,1-.347,2.315,5.239,5.239,0,0,1-.987,1.792,4.391,4.391,0,0,1-1.588,1.161,5.6,5.6,0,0,1-2.262.425H33.027V6.255h3.079a5.593,5.593,0,0,1,2.233.416,4.528,4.528,0,0,1,1.595,1.14,5.063,5.063,0,0,1,1,1.766A7.323,7.323,0,0,1,41.29,11.906ZM55.213,9.435h0a6.166,6.166,0,0,0-1.929-1.4,5.716,5.716,0,0,0-2.42-.52,5.644,5.644,0,0,0-2.412.522,6.2,6.2,0,0,0-1.916,1.4,6.493,6.493,0,0,0-1.279,2.038,6.627,6.627,0,0,0-.461,2.458,6.7,6.7,0,0,0,.448,2.43A6.424,6.424,0,0,0,46.5,18.4a6.029,6.029,0,0,0,1.923,1.4,5.958,5.958,0,0,0,4.868,0,6,6,0,0,0,1.937-1.4,6.695,6.695,0,0,0,1.264-6.929A6.5,6.5,0,0,0,55.213,9.435ZM54.339,13.91a4.05,4.05,0,0,1-.287,1.533,4.413,4.413,0,0,1-.779,1.27,3.406,3.406,0,0,1-1.1.826,3.118,3.118,0,0,1-2.629,0,3.545,3.545,0,0,1-1.1-.814,3.962,3.962,0,0,1-.757-1.232,4.12,4.12,0,0,1-.279-1.52,4.287,4.287,0,0,1,.282-1.547,4.063,4.063,0,0,1,.769-1.272,3.656,3.656,0,0,1,1.118-.845,2.91,2.91,0,0,1,1.286-.3,2.958,2.958,0,0,1,1.307.3,3.619,3.619,0,0,1,1.107.834,4.275,4.275,0,0,1,.775,1.255A3.993,3.993,0,0,1,54.339,13.91Zm8.8,3.4c-0.01.006-.1,0.055-0.5,0.245a1.867,1.867,0,0,1-.787.146,0.815,0.815,0,0,1-.5-0.155,0.281,0.281,0,0,1-.1-0.278V10.116h2.542V7.706H61.249V3.991H58.656V7.706H57.135v2.41h1.521v7.405a2.621,2.621,0,0,0,.259,1.182,2.688,2.688,0,0,0,.658.848,2.729,2.729,0,0,0,.943.525,3.429,3.429,0,0,0,1.063.163,4.547,4.547,0,0,0,.98-0.1,6.938,6.938,0,0,0,.762-0.212,3.612,3.612,0,0,0,.635-0.281c0.162-.094.223-0.126,0.242-0.135L64.82,19.2l-0.884-2.36Zm10.67-.945h0a1.239,1.239,0,0,1-.293.463,2.777,2.777,0,0,1-.637.5,4.048,4.048,0,0,1-.857.367,3.077,3.077,0,0,1-.891.134,2.955,2.955,0,0,1-1.307-.3,3.6,3.6,0,0,1-1.108-.834,4.253,4.253,0,0,1-1.061-2.829,4.319,4.319,0,0,1,.272-1.549,3.81,3.81,0,0,1,.743-1.224,3.41,3.41,0,0,1,1.1-.8,3.189,3.189,0,0,1,1.343-.284,3.137,3.137,0,0,1,1.574.409,2.741,2.741,0,0,1,1.076,1.1L74.067,12.1l2.489-.814-0.394-.8a5.136,5.136,0,0,0-2-2.182,5.737,5.737,0,0,0-2.993-.778,5.987,5.987,0,0,0-2.463.506,6.04,6.04,0,0,0-3.22,3.392,6.758,6.758,0,0,0-.448,2.452,6.544,6.544,0,0,0,.474,2.485A6.781,6.781,0,0,0,66.8,18.392,6.046,6.046,0,0,0,68.746,19.8a5.835,5.835,0,0,0,2.448.519,6.076,6.076,0,0,0,1.66-.228,5.968,5.968,0,0,0,1.473-.637,5.071,5.071,0,0,0,1.192-1,4.186,4.186,0,0,0,.779-1.295l0.291-.787-2.552-.73ZM87.438,9.435h0a6.165,6.165,0,0,0-1.93-1.4,5.715,5.715,0,0,0-2.42-.52,5.644,5.644,0,0,0-2.412.522,6.2,6.2,0,0,0-1.916,1.4,6.491,6.491,0,0,0-1.278,2.038,6.621,6.621,0,0,0-.461,2.458,6.7,6.7,0,0,0,.448,2.43,6.424,6.424,0,0,0,1.257,2.04,6.029,6.029,0,0,0,1.923,1.4,5.957,5.957,0,0,0,4.868,0,6,6,0,0,0,1.937-1.4,6.7,6.7,0,0,0,1.264-6.929A6.493,6.493,0,0,0,87.438,9.435ZM86.564,13.91a4.049,4.049,0,0,1-.287,1.533,4.414,4.414,0,0,1-.779,1.27,3.408,3.408,0,0,1-1.1.826,3.118,3.118,0,0,1-2.629,0,3.543,3.543,0,0,1-1.1-.814,3.963,3.963,0,0,1-.757-1.232,4.126,4.126,0,0,1-.279-1.52,4.29,4.29,0,0,1,.281-1.547,4.065,4.065,0,0,1,.769-1.272,3.657,3.657,0,0,1,1.118-.845,2.91,2.91,0,0,1,1.286-.3,2.96,2.96,0,0,1,1.307.3,3.621,3.621,0,0,1,1.107.834,4.273,4.273,0,0,1,.775,1.255A3.991,3.991,0,0,1,86.564,13.91Zm20.514-4.753h0a3.479,3.479,0,0,0-3.217-1.638,5.036,5.036,0,0,0-4.008,1.961,3.964,3.964,0,0,0-.715-0.929A3.824,3.824,0,0,0,96.38,7.518a4.974,4.974,0,0,0-2.829.863,5.611,5.611,0,0,0-.562.434V7.706h-2.51V20.114h2.593V12.726a4.577,4.577,0,0,1,.47-1.072,3.972,3.972,0,0,1,.73-0.891,2.928,2.928,0,0,1,.873-0.545,2.661,2.661,0,0,1,.985-0.185,1.386,1.386,0,0,1,1.286.615,4.968,4.968,0,0,1,.5,2.637v6.83h2.594V12.746a4.813,4.813,0,0,1,.464-1.08,3.894,3.894,0,0,1,.711-0.888,2.959,2.959,0,0,1,.867-0.554,2.589,2.589,0,0,1,1-.191,1.4,1.4,0,0,1,1.3.627,5.135,5.135,0,0,1,.511,2.625v6.83h2.593V13.1A7.649,7.649,0,0,0,107.078,9.157Z"/>
  <path id="Shape_2_copy" data-name="Shape 2 copy" class="cls-2" d="M110.139,20.049V4.382h6.632a4.434,4.434,0,0,1,1.993.452,5.161,5.161,0,0,1,1.575,1.192A5.629,5.629,0,0,1,121.375,7.7a5.066,5.066,0,0,1,.374,1.887,5.466,5.466,0,0,1-.352,1.931,5.359,5.359,0,0,1-.992,1.666,4.872,4.872,0,0,1-1.542,1.17,4.451,4.451,0,0,1-1.982.441h-3.7v2.688a2.562,2.562,0,0,1-2.56,2.564h-0.481Zm3.041-7.922H116.7a1.739,1.739,0,0,0,1.4-.684,2.83,2.83,0,0,0,.562-1.854,3.069,3.069,0,0,0-.176-1.07,2.611,2.611,0,0,0-.463-0.805,1.841,1.841,0,0,0-.672-0.5,1.963,1.963,0,0,0-.782-0.165H113.18v5.075Zm18.091-2.814a5.616,5.616,0,0,0-3.865-1.225,8.509,8.509,0,0,0-4.8,1.478l0.9,1.875a8.415,8.415,0,0,1,1.8-.971,5.092,5.092,0,0,1,1.807-.332,2.708,2.708,0,0,1,1.928.618,2.325,2.325,0,0,1,.649,1.766v0.661a6.179,6.179,0,0,0-1.309-.375,8.66,8.66,0,0,0-1.51-.132,6.72,6.72,0,0,0-1.983.277,5.01,5.01,0,0,0-1.553.761,3.459,3.459,0,0,0-1.013,1.179,3.22,3.22,0,0,0-.363,1.512,3.537,3.537,0,0,0,.3,1.456,3.6,3.6,0,0,0,.827,1.158,3.737,3.737,0,0,0,1.255.773,4.384,4.384,0,0,0,1.564.275,5.388,5.388,0,0,0,2.358-.529A5.112,5.112,0,0,0,130.137,18l0.067,0.64a1.582,1.582,0,0,0,.55.982,2.045,2.045,0,0,0,1.279.386c0.172,0,.379-0.011.616-0.031V12.854A4.489,4.489,0,0,0,131.271,9.313ZM129.7,16.1a1.058,1.058,0,0,1-.485.839,2.564,2.564,0,0,1-1.045.706,3.864,3.864,0,0,1-1.421.265,2.069,2.069,0,0,1-1.409-.5,1.579,1.579,0,0,1-.574-1.246,1.56,1.56,0,0,1,.727-1.313,3.155,3.155,0,0,1,1.872-.518,6.162,6.162,0,0,1,1.19.121,7.154,7.154,0,0,1,1.145.319V16.1Zm8.019,3.928h-0.806a2.1,2.1,0,0,1-2.1-2.105V3.74h2.907V20.026ZM12.62,0H0.836V23.4L12.62,23.5A11.742,11.742,0,0,0,24.353,11.752h0A11.742,11.742,0,0,0,12.62,0ZM6.059,9.156A2.143,2.143,0,1,1,8.2,11.3,2.145,2.145,0,0,1,6.059,9.156Zm6.165,8.251H12.083A5.778,5.778,0,0,1,7.312,15.1l1.1-.744a4.462,4.462,0,0,0,3.691,1.718A4.938,4.938,0,0,0,16.2,14.335l1.076,0.784A6.232,6.232,0,0,1,12.224,17.407ZM17.6,9.755H13.45v-1.2H17.6v1.2Z"/>
  <path class="cls-1" d="M1,23V0H0V30l7-7H1Z"/>
</svg>
